<svg xmlns="http://www.w3.org/2000/svg" viewBox="0 0 1040 547" font-family="Segoe UI, Malgun Gothic, sans-serif">
<g transform="translate(10,10)">
<rect x="1" y="1" width="358" height="271" rx="12" fill="#ffffff" stroke="#d1d9e0"/>
<rect x="1" y="1" width="358" height="44" rx="12" fill="#0969da"/>
<rect x="1" y="30" width="358" height="15" fill="#0969da"/>
<text x="20" y="22" fill="#ffffff" font-size="16" font-weight="700">USERS</text>
<text x="20" y="38" fill="#cfe5ff" font-size="11">사용자 (로그인 계정)</text>
<g font-size="13" fill="#1f2328">
<line x1="1" y1="81" x2="359" y2="81" stroke="#eaeef2"/>
<text x="20" y="68" font-weight="700">id</text>
<text x="160" y="68" fill="#59636e" font-size="11.5">NUMBER</text>
<rect x="292" y="55" width="48" height="18" rx="9" fill="#fff8c5"/>
<text x="316" y="68" fill="#9a6700" font-size="11" font-weight="700" text-anchor="middle">PK</text>
<line x1="1" y1="117" x2="359" y2="117" stroke="#eaeef2"/>
<text x="20" y="104">emp_no</text>
<text x="160" y="104" fill="#59636e" font-size="11.5">VARCHAR2(20)</text>
<rect x="292" y="91" width="48" height="18" rx="9" fill="#ddf4ff"/>
<text x="316" y="104" fill="#0969da" font-size="11" font-weight="700" text-anchor="middle">UK</text>
<line x1="1" y1="153" x2="359" y2="153" stroke="#eaeef2"/>
<text x="20" y="140">name</text>
<text x="160" y="140" fill="#59636e" font-size="11.5">VARCHAR2(50) · NOT NULL</text>
<line x1="1" y1="189" x2="359" y2="189" stroke="#eaeef2"/>
<text x="20" y="176">dept</text>
<text x="160" y="176" fill="#59636e" font-size="11.5">VARCHAR2(100)</text>
<line x1="1" y1="225" x2="359" y2="225" stroke="#eaeef2"/>
<text x="20" y="212">password</text>
<text x="160" y="212" fill="#59636e" font-size="11.5">VARCHAR2(200) · NOT NULL</text>
<line x1="1" y1="261" x2="359" y2="261" stroke="#eaeef2"/>
<text x="20" y="248">created_at</text>
<text x="160" y="248" fill="#59636e" font-size="11.5">TIMESTAMP</text>
</g>
</g>
<g transform="translate(670,10)">
<rect x="1" y="1" width="358" height="271" rx="12" fill="#ffffff" stroke="#d1d9e0"/>
<rect x="1" y="1" width="358" height="44" rx="12" fill="#0969da"/>
<rect x="1" y="30" width="358" height="15" fill="#0969da"/>
<text x="20" y="22" fill="#ffffff" font-size="16" font-weight="700">PROJECTS</text>
<text x="20" y="38" fill="#cfe5ff" font-size="11">프로젝트</text>
<g font-size="13" fill="#1f2328">
<line x1="1" y1="81" x2="359" y2="81" stroke="#eaeef2"/>
<text x="20" y="68" font-weight="700">id</text>
<text x="160" y="68" fill="#59636e" font-size="11.5">NUMBER</text>
<rect x="292" y="55" width="48" height="18" rx="9" fill="#fff8c5"/>
<text x="316" y="68" fill="#9a6700" font-size="11" font-weight="700" text-anchor="middle">PK</text>
<line x1="1" y1="117" x2="359" y2="117" stroke="#eaeef2"/>
<text x="20" y="104">name</text>
<text x="160" y="104" fill="#59636e" font-size="11.5">VARCHAR2(100) · NOT NULL</text>
<line x1="1" y1="153" x2="359" y2="153" stroke="#eaeef2"/>
<text x="20" y="140">customer</text>
<text x="160" y="140" fill="#59636e" font-size="11.5">VARCHAR2(100)</text>
<line x1="1" y1="189" x2="359" y2="189" stroke="#eaeef2"/>
<text x="20" y="176">description</text>
<text x="160" y="176" fill="#59636e" font-size="11.5">VARCHAR2(500)</text>
<line x1="1" y1="225" x2="359" y2="225" stroke="#eaeef2"/>
<text x="20" y="212">created_by</text>
<text x="160" y="212" fill="#59636e" font-size="11.5">NUMBER · NOT NULL</text>
<rect x="292" y="199" width="48" height="18" rx="9" fill="#dafbe1"/>
<text x="316" y="212" fill="#1a7f37" font-size="11" font-weight="700" text-anchor="middle">FK</text>
<line x1="1" y1="261" x2="359" y2="261" stroke="#eaeef2"/>
<text x="20" y="248">created_at</text>
<text x="160" y="248" fill="#59636e" font-size="11.5">TIMESTAMP</text>
</g>
</g>
<g transform="translate(10,300)">
<rect x="1" y="1" width="358" height="235" rx="12" fill="#ffffff" stroke="#d1d9e0"/>
<rect x="1" y="1" width="358" height="44" rx="12" fill="#0969da"/>
<rect x="1" y="30" width="358" height="15" fill="#0969da"/>
<text x="20" y="22" fill="#ffffff" font-size="16" font-weight="700">MEMBERSHIPS</text>
<text x="20" y="38" fill="#cfe5ff" font-size="11">유저-프로젝트-역할</text>
<g font-size="13" fill="#1f2328">
<line x1="1" y1="81" x2="359" y2="81" stroke="#eaeef2"/>
<text x="20" y="68" font-weight="700">id</text>
<text x="160" y="68" fill="#59636e" font-size="11.5">NUMBER</text>
<rect x="292" y="55" width="48" height="18" rx="9" fill="#fff8c5"/>
<text x="316" y="68" fill="#9a6700" font-size="11" font-weight="700" text-anchor="middle">PK</text>
<line x1="1" y1="117" x2="359" y2="117" stroke="#eaeef2"/>
<text x="20" y="104">user_id</text>
<text x="160" y="104" fill="#59636e" font-size="11.5">NUMBER · NOT NULL</text>
<rect x="292" y="91" width="48" height="18" rx="9" fill="#dafbe1"/>
<text x="316" y="104" fill="#1a7f37" font-size="11" font-weight="700" text-anchor="middle">FK</text>
<line x1="1" y1="153" x2="359" y2="153" stroke="#eaeef2"/>
<text x="20" y="140">project_id</text>
<text x="160" y="140" fill="#59636e" font-size="11.5">NUMBER · NOT NULL</text>
<rect x="292" y="127" width="48" height="18" rx="9" fill="#dafbe1"/>
<text x="316" y="140" fill="#1a7f37" font-size="11" font-weight="700" text-anchor="middle">FK</text>
<line x1="1" y1="189" x2="359" y2="189" stroke="#eaeef2"/>
<text x="20" y="176">role</text>
<text x="160" y="176" fill="#59636e" font-size="11.5">VARCHAR2(20)</text>
<line x1="1" y1="225" x2="359" y2="225" stroke="#eaeef2"/>
<text x="20" y="212">joined_at</text>
<text x="160" y="212" fill="#59636e" font-size="11.5">TIMESTAMP</text>
</g>
</g>
<g transform="translate(505,300)">
<rect x="1" y="1" width="358" height="235" rx="12" fill="#ffffff" stroke="#d1d9e0"/>
<rect x="1" y="1" width="358" height="44" rx="12" fill="#0969da"/>
<rect x="1" y="30" width="358" height="15" fill="#0969da"/>
<text x="20" y="22" fill="#ffffff" font-size="16" font-weight="700">PROJECT_TOKENS</text>
<text x="20" y="38" fill="#cfe5ff" font-size="11">프로젝트 접근 토큰</text>
<g font-size="13" fill="#1f2328">
<line x1="1" y1="81" x2="359" y2="81" stroke="#eaeef2"/>
<text x="20" y="68" font-weight="700">id</text>
<text x="160" y="68" fill="#59636e" font-size="11.5">NUMBER</text>
<rect x="292" y="55" width="48" height="18" rx="9" fill="#fff8c5"/>
<text x="316" y="68" fill="#9a6700" font-size="11" font-weight="700" text-anchor="middle">PK</text>
<line x1="1" y1="117" x2="359" y2="117" stroke="#eaeef2"/>
<text x="20" y="104">project_id</text>
<text x="160" y="104" fill="#59636e" font-size="11.5">NUMBER · NOT NULL</text>
<rect x="292" y="91" width="48" height="18" rx="9" fill="#dafbe1"/>
<text x="316" y="104" fill="#1a7f37" font-size="11" font-weight="700" text-anchor="middle">FK</text>
<line x1="1" y1="153" x2="359" y2="153" stroke="#eaeef2"/>
<text x="20" y="140">token</text>
<text x="160" y="140" fill="#59636e" font-size="11.5">VARCHAR2(64)</text>
<rect x="292" y="127" width="48" height="18" rx="9" fill="#ddf4ff"/>
<text x="316" y="140" fill="#0969da" font-size="11" font-weight="700" text-anchor="middle">UK</text>
<line x1="1" y1="189" x2="359" y2="189" stroke="#eaeef2"/>
<text x="20" y="176">revoked</text>
<text x="160" y="176" fill="#59636e" font-size="11.5">NUMBER(1)</text>
<line x1="1" y1="225" x2="359" y2="225" stroke="#eaeef2"/>
<text x="20" y="212">created_at</text>
<text x="160" y="212" fill="#59636e" font-size="11.5">TIMESTAMP</text>
</g>
</g>
</svg>
