<svg xmlns="http://www.w3.org/2000/svg" viewBox="0 0 460 268" font-family="Segoe UI, Malgun Gothic, sans-serif">
  <rect x="1" y="1" width="458" height="266" rx="12" fill="#ffffff" stroke="#d1d9e0"/>
  <rect x="1" y="1" width="458" height="44" rx="12" fill="#0969da"/>
  <rect x="1" y="30" width="458" height="15" fill="#0969da"/>
  <text x="20" y="22" fill="#ffffff" font-size="16" font-weight="700">USERS</text>
  <text x="20" y="38" fill="#cfe5ff" font-size="11">사용자 (로그인 계정)</text>

  <!-- rows -->
  <g font-size="13" fill="#1f2328">
    <line x1="1" y1="82" x2="459" y2="82" stroke="#eaeef2"/>
    <line x1="1" y1="118" x2="459" y2="118" stroke="#eaeef2"/>
    <line x1="1" y1="154" x2="459" y2="154" stroke="#eaeef2"/>
    <line x1="1" y1="190" x2="459" y2="190" stroke="#eaeef2"/>
    <line x1="1" y1="226" x2="459" y2="226" stroke="#eaeef2"/>

    <text x="20" y="69" font-weight="700">id</text>
    <text x="150" y="69" fill="#59636e">NUMBER (IDENTITY)</text>
    <rect x="392" y="57" width="48" height="18" rx="9" fill="#fff8c5"/><text x="416" y="70" fill="#9a6700" font-size="11" font-weight="700" text-anchor="middle">PK</text>

    <text x="20" y="105" font-weight="700">emp_no</text>
    <text x="150" y="105" fill="#59636e">VARCHAR2(20)</text>
    <rect x="392" y="93" width="48" height="18" rx="9" fill="#ddf4ff"/><text x="416" y="106" fill="#0969da" font-size="11" font-weight="700" text-anchor="middle">UK</text>

    <text x="20" y="141">name</text>
    <text x="150" y="141" fill="#59636e">VARCHAR2(50) · NOT NULL</text>

    <text x="20" y="177">dept</text>
    <text x="150" y="177" fill="#59636e">VARCHAR2(100)</text>

    <text x="20" y="213">password</text>
    <text x="200" y="213" fill="#59636e">VARCHAR2(200) · NOT NULL</text>

    <text x="20" y="249">created_at</text>
    <text x="150" y="249" fill="#59636e">TIMESTAMP · SYSTIMESTAMP</text>
  </g>
</svg>
